<mxfile host="65bd71144e">
    <diagram id="Ts3KVDJRjSuq-3A5cFuQ" name="Page-1">
        <mxGraphModel dx="594" dy="310" grid="1" gridSize="10" guides="1" tooltips="1" connect="1" arrows="1" fold="1" page="1" pageScale="1" pageWidth="850" pageHeight="1100" math="0" shadow="0">
            <root>
                <mxCell id="0"/>
                <mxCell id="1" parent="0"/>
                <mxCell id="2" value="" style="rounded=0;whiteSpace=wrap;html=1;" parent="1" vertex="1">
                    <mxGeometry x="65" y="40" width="720" height="480" as="geometry"/>
                </mxCell>
                <mxCell id="3" value="" style="rounded=0;whiteSpace=wrap;html=1;" parent="1" vertex="1">
                    <mxGeometry x="65" y="40" width="125" height="480" as="geometry"/>
                </mxCell>
                <mxCell id="4" value="" style="rounded=0;whiteSpace=wrap;html=1;" parent="1" vertex="1">
                    <mxGeometry x="190" y="40" width="595" height="50" as="geometry"/>
                </mxCell>
                <mxCell id="5" value="Hotel Name" style="text;html=1;align=center;verticalAlign=middle;whiteSpace=wrap;rounded=0;fontSize=18;fontStyle=1" parent="1" vertex="1">
                    <mxGeometry x="76.25" y="50" width="102.5" height="30" as="geometry"/>
                </mxCell>
                <mxCell id="13" value="" style="group" parent="1" vertex="1" connectable="0">
                    <mxGeometry x="650" y="50" width="130" height="30" as="geometry"/>
                </mxCell>
                <mxCell id="6" value="" style="ellipse;whiteSpace=wrap;html=1;aspect=fixed;" parent="13" vertex="1">
                    <mxGeometry y="2.5" width="25" height="25" as="geometry"/>
                </mxCell>
                <mxCell id="7" value="Hotel Organizer" style="text;html=1;align=center;verticalAlign=middle;resizable=0;points=[];autosize=1;strokeColor=none;fillColor=none;" parent="13" vertex="1">
                    <mxGeometry x="20" width="110" height="30" as="geometry"/>
                </mxCell>
                <mxCell id="14" value="" style="rounded=0;whiteSpace=wrap;html=1;" parent="1" vertex="1">
                    <mxGeometry x="200" y="56.5" width="20" height="17" as="geometry"/>
                </mxCell>
                <mxCell id="15" value="Dashboard" style="rounded=1;whiteSpace=wrap;html=1;fontSize=10;" parent="1" vertex="1">
                    <mxGeometry x="76.25" y="100" width="103.75" height="30" as="geometry"/>
                </mxCell>
                <mxCell id="16" value="&lt;font style=&quot;font-size: 10px;&quot;&gt;Unit Type &amp;amp; Allotment&lt;/font&gt;" style="rounded=1;whiteSpace=wrap;html=1;" parent="1" vertex="1">
                    <mxGeometry x="76.25" y="140" width="103.75" height="30" as="geometry"/>
                </mxCell>
                <mxCell id="17" value="&lt;font style=&quot;font-size: 10px;&quot;&gt;Promotion Code&lt;/font&gt;" style="rounded=1;whiteSpace=wrap;html=1;" parent="1" vertex="1">
                    <mxGeometry x="75" y="180" width="103.75" height="30" as="geometry"/>
                </mxCell>
                <mxCell id="18" value="&lt;font style=&quot;font-size: 10px;&quot;&gt;General Setting&lt;/font&gt;" style="rounded=1;whiteSpace=wrap;html=1;" parent="1" vertex="1">
                    <mxGeometry x="76.25" y="260" width="103.75" height="30" as="geometry"/>
                </mxCell>
                <mxCell id="19" value="&lt;font style=&quot;font-size: 10px;&quot;&gt;Hotel Setting&lt;/font&gt;" style="rounded=1;whiteSpace=wrap;html=1;" parent="1" vertex="1">
                    <mxGeometry x="76.25" y="220" width="103.75" height="30" as="geometry"/>
                </mxCell>
                <mxCell id="20" value="&lt;font style=&quot;font-size: 10px;&quot;&gt;Logout&lt;/font&gt;" style="rounded=1;whiteSpace=wrap;html=1;" parent="1" vertex="1">
                    <mxGeometry x="75.63" y="300" width="103.75" height="30" as="geometry"/>
                </mxCell>
                <mxCell id="21" value="" style="rounded=1;whiteSpace=wrap;html=1;arcSize=5;" parent="1" vertex="1">
                    <mxGeometry x="200" y="100" width="570" height="110" as="geometry"/>
                </mxCell>
                <mxCell id="22" value="&lt;font style=&quot;font-size: 14px;&quot;&gt;&lt;b&gt;Dashboard&lt;/b&gt;&lt;/font&gt;" style="text;html=1;align=center;verticalAlign=middle;resizable=0;points=[];autosize=1;strokeColor=none;fillColor=none;" parent="1" vertex="1">
                    <mxGeometry x="200" y="100" width="100" height="30" as="geometry"/>
                </mxCell>
                <mxCell id="23" value="" style="shape=table;startSize=0;container=1;collapsible=0;childLayout=tableLayout;fontSize=10;" parent="1" vertex="1">
                    <mxGeometry x="210" y="132.5" width="220" height="65" as="geometry"/>
                </mxCell>
                <mxCell id="24" value="" style="shape=tableRow;horizontal=0;startSize=0;swimlaneHead=0;swimlaneBody=0;strokeColor=inherit;top=0;left=0;bottom=0;right=0;collapsible=0;dropTarget=0;fillColor=none;points=[[0,0.5],[1,0.5]];portConstraint=eastwest;fontSize=10;" parent="23" vertex="1">
                    <mxGeometry width="220" height="22" as="geometry"/>
                </mxCell>
                <mxCell id="25" value="No" style="shape=partialRectangle;html=1;whiteSpace=wrap;connectable=0;strokeColor=inherit;overflow=hidden;fillColor=none;top=0;left=0;bottom=0;right=0;pointerEvents=1;fontSize=10;" parent="24" vertex="1">
                    <mxGeometry width="30" height="22" as="geometry">
                        <mxRectangle width="30" height="22" as="alternateBounds"/>
                    </mxGeometry>
                </mxCell>
                <mxCell id="26" value="Res. Number" style="shape=partialRectangle;html=1;whiteSpace=wrap;connectable=0;strokeColor=inherit;overflow=hidden;fillColor=none;top=0;left=0;bottom=0;right=0;pointerEvents=1;fontSize=10;" parent="24" vertex="1">
                    <mxGeometry x="30" width="90" height="22" as="geometry">
                        <mxRectangle width="90" height="22" as="alternateBounds"/>
                    </mxGeometry>
                </mxCell>
                <mxCell id="27" value="Status" style="shape=partialRectangle;html=1;whiteSpace=wrap;connectable=0;strokeColor=inherit;overflow=hidden;fillColor=none;top=0;left=0;bottom=0;right=0;pointerEvents=1;fontSize=10;" parent="24" vertex="1">
                    <mxGeometry x="120" width="100" height="22" as="geometry">
                        <mxRectangle width="100" height="22" as="alternateBounds"/>
                    </mxGeometry>
                </mxCell>
                <mxCell id="28" value="" style="shape=tableRow;horizontal=0;startSize=0;swimlaneHead=0;swimlaneBody=0;strokeColor=inherit;top=0;left=0;bottom=0;right=0;collapsible=0;dropTarget=0;fillColor=none;points=[[0,0.5],[1,0.5]];portConstraint=eastwest;fontSize=10;" parent="23" vertex="1">
                    <mxGeometry y="22" width="220" height="21" as="geometry"/>
                </mxCell>
                <mxCell id="29" value="1" style="shape=partialRectangle;html=1;whiteSpace=wrap;connectable=0;strokeColor=inherit;overflow=hidden;fillColor=none;top=0;left=0;bottom=0;right=0;pointerEvents=1;fontSize=10;" parent="28" vertex="1">
                    <mxGeometry width="30" height="21" as="geometry">
                        <mxRectangle width="30" height="21" as="alternateBounds"/>
                    </mxGeometry>
                </mxCell>
                <mxCell id="30" value="Res-ABC-123" style="shape=partialRectangle;html=1;whiteSpace=wrap;connectable=0;strokeColor=inherit;overflow=hidden;fillColor=none;top=0;left=0;bottom=0;right=0;pointerEvents=1;fontSize=10;" parent="28" vertex="1">
                    <mxGeometry x="30" width="90" height="21" as="geometry">
                        <mxRectangle width="90" height="21" as="alternateBounds"/>
                    </mxGeometry>
                </mxCell>
                <mxCell id="31" value="Pending" style="shape=partialRectangle;html=1;whiteSpace=wrap;connectable=0;strokeColor=inherit;overflow=hidden;fillColor=none;top=0;left=0;bottom=0;right=0;pointerEvents=1;fontSize=10;" parent="28" vertex="1">
                    <mxGeometry x="120" width="100" height="21" as="geometry">
                        <mxRectangle width="100" height="21" as="alternateBounds"/>
                    </mxGeometry>
                </mxCell>
                <mxCell id="32" value="" style="shape=tableRow;horizontal=0;startSize=0;swimlaneHead=0;swimlaneBody=0;strokeColor=inherit;top=0;left=0;bottom=0;right=0;collapsible=0;dropTarget=0;fillColor=none;points=[[0,0.5],[1,0.5]];portConstraint=eastwest;fontSize=10;" parent="23" vertex="1">
                    <mxGeometry y="43" width="220" height="22" as="geometry"/>
                </mxCell>
                <mxCell id="33" value="2" style="shape=partialRectangle;html=1;whiteSpace=wrap;connectable=0;strokeColor=inherit;overflow=hidden;fillColor=none;top=0;left=0;bottom=0;right=0;pointerEvents=1;fontSize=10;" parent="32" vertex="1">
                    <mxGeometry width="30" height="22" as="geometry">
                        <mxRectangle width="30" height="22" as="alternateBounds"/>
                    </mxGeometry>
                </mxCell>
                <mxCell id="34" value="&lt;span style=&quot;color: rgb(0, 0, 0);&quot;&gt;Res-ABC-123&lt;/span&gt;" style="shape=partialRectangle;html=1;whiteSpace=wrap;connectable=0;strokeColor=inherit;overflow=hidden;fillColor=none;top=0;left=0;bottom=0;right=0;pointerEvents=1;fontSize=10;" parent="32" vertex="1">
                    <mxGeometry x="30" width="90" height="22" as="geometry">
                        <mxRectangle width="90" height="22" as="alternateBounds"/>
                    </mxGeometry>
                </mxCell>
                <mxCell id="35" value="Confirmed" style="shape=partialRectangle;html=1;whiteSpace=wrap;connectable=0;strokeColor=inherit;overflow=hidden;fillColor=none;top=0;left=0;bottom=0;right=0;pointerEvents=1;fontSize=10;" parent="32" vertex="1">
                    <mxGeometry x="120" width="100" height="22" as="geometry">
                        <mxRectangle width="100" height="22" as="alternateBounds"/>
                    </mxGeometry>
                </mxCell>
                <mxCell id="40" value="" style="shape=table;startSize=0;container=1;collapsible=0;childLayout=tableLayout;fontSize=10;" parent="1" vertex="1">
                    <mxGeometry x="430" y="132.5" width="330" height="65" as="geometry"/>
                </mxCell>
                <mxCell id="41" value="" style="shape=tableRow;horizontal=0;startSize=0;swimlaneHead=0;swimlaneBody=0;strokeColor=inherit;top=0;left=0;bottom=0;right=0;collapsible=0;dropTarget=0;fillColor=none;points=[[0,0.5],[1,0.5]];portConstraint=eastwest;fontSize=10;" parent="40" vertex="1">
                    <mxGeometry width="330" height="22" as="geometry"/>
                </mxCell>
                <mxCell id="42" value="DP" style="shape=partialRectangle;html=1;whiteSpace=wrap;connectable=0;strokeColor=inherit;overflow=hidden;fillColor=none;top=0;left=0;bottom=0;right=0;pointerEvents=1;fontSize=10;" parent="41" vertex="1">
                    <mxGeometry width="120" height="22" as="geometry">
                        <mxRectangle width="120" height="22" as="alternateBounds"/>
                    </mxGeometry>
                </mxCell>
                <mxCell id="43" value="Total" style="shape=partialRectangle;html=1;whiteSpace=wrap;connectable=0;strokeColor=inherit;overflow=hidden;fillColor=none;top=0;left=0;bottom=0;right=0;pointerEvents=1;fontSize=10;" parent="41" vertex="1">
                    <mxGeometry x="120" width="100" height="22" as="geometry">
                        <mxRectangle width="100" height="22" as="alternateBounds"/>
                    </mxGeometry>
                </mxCell>
                <mxCell id="44" value="Actions" style="shape=partialRectangle;html=1;whiteSpace=wrap;connectable=0;strokeColor=inherit;overflow=hidden;fillColor=none;top=0;left=0;bottom=0;right=0;pointerEvents=1;fontSize=10;" parent="41" vertex="1">
                    <mxGeometry x="220" width="110" height="22" as="geometry">
                        <mxRectangle width="110" height="22" as="alternateBounds"/>
                    </mxGeometry>
                </mxCell>
                <mxCell id="45" value="" style="shape=tableRow;horizontal=0;startSize=0;swimlaneHead=0;swimlaneBody=0;strokeColor=inherit;top=0;left=0;bottom=0;right=0;collapsible=0;dropTarget=0;fillColor=none;points=[[0,0.5],[1,0.5]];portConstraint=eastwest;fontSize=10;" parent="40" vertex="1">
                    <mxGeometry y="22" width="330" height="21" as="geometry"/>
                </mxCell>
                <mxCell id="46" value="Rp. 200.000" style="shape=partialRectangle;html=1;whiteSpace=wrap;connectable=0;strokeColor=inherit;overflow=hidden;fillColor=none;top=0;left=0;bottom=0;right=0;pointerEvents=1;fontSize=10;" parent="45" vertex="1">
                    <mxGeometry width="120" height="21" as="geometry">
                        <mxRectangle width="120" height="21" as="alternateBounds"/>
                    </mxGeometry>
                </mxCell>
                <mxCell id="47" value="Rp. 400.000" style="shape=partialRectangle;html=1;whiteSpace=wrap;connectable=0;strokeColor=inherit;overflow=hidden;fillColor=none;top=0;left=0;bottom=0;right=0;pointerEvents=1;fontSize=10;" parent="45" vertex="1">
                    <mxGeometry x="120" width="100" height="21" as="geometry">
                        <mxRectangle width="100" height="21" as="alternateBounds"/>
                    </mxGeometry>
                </mxCell>
                <mxCell id="48" value="" style="shape=partialRectangle;html=1;whiteSpace=wrap;connectable=0;strokeColor=inherit;overflow=hidden;fillColor=none;top=0;left=0;bottom=0;right=0;pointerEvents=1;fontSize=10;" parent="45" vertex="1">
                    <mxGeometry x="220" width="110" height="21" as="geometry">
                        <mxRectangle width="110" height="21" as="alternateBounds"/>
                    </mxGeometry>
                </mxCell>
                <mxCell id="49" value="" style="shape=tableRow;horizontal=0;startSize=0;swimlaneHead=0;swimlaneBody=0;strokeColor=inherit;top=0;left=0;bottom=0;right=0;collapsible=0;dropTarget=0;fillColor=none;points=[[0,0.5],[1,0.5]];portConstraint=eastwest;fontSize=10;" parent="40" vertex="1">
                    <mxGeometry y="43" width="330" height="22" as="geometry"/>
                </mxCell>
                <mxCell id="50" value="Rp. 200.000" style="shape=partialRectangle;html=1;whiteSpace=wrap;connectable=0;strokeColor=inherit;overflow=hidden;fillColor=none;top=0;left=0;bottom=0;right=0;pointerEvents=1;fontSize=10;" parent="49" vertex="1">
                    <mxGeometry width="120" height="22" as="geometry">
                        <mxRectangle width="120" height="22" as="alternateBounds"/>
                    </mxGeometry>
                </mxCell>
                <mxCell id="51" value="Rp. 400.000" style="shape=partialRectangle;html=1;whiteSpace=wrap;connectable=0;strokeColor=inherit;overflow=hidden;fillColor=none;top=0;left=0;bottom=0;right=0;pointerEvents=1;fontSize=10;" parent="49" vertex="1">
                    <mxGeometry x="120" width="100" height="22" as="geometry">
                        <mxRectangle width="100" height="22" as="alternateBounds"/>
                    </mxGeometry>
                </mxCell>
                <mxCell id="52" value="" style="shape=partialRectangle;html=1;whiteSpace=wrap;connectable=0;strokeColor=inherit;overflow=hidden;fillColor=none;top=0;left=0;bottom=0;right=0;pointerEvents=1;fontSize=10;" parent="49" vertex="1">
                    <mxGeometry x="220" width="110" height="22" as="geometry">
                        <mxRectangle width="110" height="22" as="alternateBounds"/>
                    </mxGeometry>
                </mxCell>
                <mxCell id="74" value="&lt;font style=&quot;font-size: 8px;&quot;&gt;Show&lt;/font&gt;" style="rounded=1;whiteSpace=wrap;html=1;" parent="1" vertex="1">
                    <mxGeometry x="664" y="157.5" width="40" height="15" as="geometry"/>
                </mxCell>
                <mxCell id="75" value="&lt;font style=&quot;font-size: 8px;&quot;&gt;Edit&lt;/font&gt;" style="rounded=1;whiteSpace=wrap;html=1;" parent="1" vertex="1">
                    <mxGeometry x="707" y="157.5" width="40" height="15" as="geometry"/>
                </mxCell>
                <mxCell id="76" value="&lt;font style=&quot;font-size: 8px;&quot;&gt;Show&lt;/font&gt;" style="rounded=1;whiteSpace=wrap;html=1;" parent="1" vertex="1">
                    <mxGeometry x="665" y="179" width="40" height="15" as="geometry"/>
                </mxCell>
                <mxCell id="77" value="&lt;font style=&quot;font-size: 8px;&quot;&gt;Edit&lt;/font&gt;" style="rounded=1;whiteSpace=wrap;html=1;" parent="1" vertex="1">
                    <mxGeometry x="708" y="179" width="40" height="15" as="geometry"/>
                </mxCell>
            </root>
        </mxGraphModel>
    </diagram>
</mxfile>